HIERARCHY
ROOT joint_Root
{
	OFFSET 0.0 0.0 0.0
	CHANNELS 6 Xposition Yposition Zposition Zrotation Xrotation Yrotation 
	JOINT Hips
	{
		OFFSET 4.5925 91.4895 -427.239
		CHANNELS 6 Xposition Yposition Zposition Zrotation Xrotation Yrotation 
		JOINT Spine
		{
			OFFSET 15.7357 0.0 0.0
			CHANNELS 6 Xposition Yposition Zposition Zrotation Xrotation Yrotation 
			JOINT Chest
			{
				OFFSET 8.98455 -0.406207 0.0
				CHANNELS 6 Xposition Yposition Zposition Zrotation Xrotation Yrotation 
				JOINT Neck
				{
					OFFSET 16.3773 0.0 0.0
					CHANNELS 6 Xposition Yposition Zposition Zrotation Xrotation Yrotation 
					JOINT Head
					{
						OFFSET 6.45672 0.0 0.0
						CHANNELS 6 Xposition Yposition Zposition Zrotation Xrotation Yrotation 
						End Site
						{
							OFFSET 0.0 0.0 0.0
						}
					}
				}
				JOINT Shoulder_L
				{
					OFFSET 12.9942 -0.242716 4.98039
					CHANNELS 6 Xposition Yposition Zposition Zrotation Xrotation Yrotation 
					JOINT UpperArm_L
					{
						OFFSET 5.34809 0.0 0.0
						CHANNELS 6 Xposition Yposition Zposition Zrotation Xrotation Yrotation 
						JOINT LowerArm_L
						{
							OFFSET 24.3286 1.87007e-05 0.0
							CHANNELS 6 Xposition Yposition Zposition Zrotation Xrotation Yrotation 
							JOINT Hand_L
							{
								OFFSET 22.2916 0.0 0.0
								CHANNELS 6 Xposition Yposition Zposition Zrotation Xrotation Yrotation 
								End Site
								{
									OFFSET 0.0 0.0 0.0
								}
							}
						}
					}
				}
				JOINT Shoulder_R
				{
					OFFSET 12.9945 -0.242716 -4.98039
					CHANNELS 6 Xposition Yposition Zposition Zrotation Xrotation Yrotation 
					JOINT UpperArm_R
					{
						OFFSET -5.34813 0.0 0.0
						CHANNELS 6 Xposition Yposition Zposition Zrotation Xrotation Yrotation 
						JOINT LowerArm_R
						{
							OFFSET -24.3289 0.000322201 0.0
							CHANNELS 6 Xposition Yposition Zposition Zrotation Xrotation Yrotation 
							JOINT Hand_R
							{
								OFFSET -22.2915 -0.000108084 0.0
								CHANNELS 6 Xposition Yposition Zposition Zrotation Xrotation Yrotation 
								End Site
								{
									OFFSET 0.0 0.0 0.0
								}
							}
						}
					}
				}
			}
		}
		JOINT UpperLeg_L
		{
			OFFSET -2.19248 -6.46944 0.0
			CHANNELS 6 Xposition Yposition Zposition Zrotation Xrotation Yrotation 
			JOINT LowerLeg_L
			{
				OFFSET 39.0811 0.0 -1.23785e-05
				CHANNELS 6 Xposition Yposition Zposition Zrotation Xrotation Yrotation 
				JOINT Foot_L
				{
					OFFSET 40.9854 0.0 -1.26872e-05
					CHANNELS 6 Xposition Yposition Zposition Zrotation Xrotation Yrotation 
					JOINT Toes_L
					{
						OFFSET 11.7543 0.0 0.0
						CHANNELS 6 Xposition Yposition Zposition Zrotation Xrotation Yrotation 
						End Site
						{
							OFFSET 0.0 0.0 0.0
						}
					}
				}
			}
		}
		JOINT UpperLeg_R
		{
			OFFSET -2.19251 6.46944 0.0
			CHANNELS 6 Xposition Yposition Zposition Zrotation Xrotation Yrotation 
			JOINT LowerLeg_R
			{
				OFFSET -39.0811 -0.00228153 -0.0401928
				CHANNELS 6 Xposition Yposition Zposition Zrotation Xrotation Yrotation 
				JOINT Foot_R
				{
					OFFSET -40.9854 0.0 0.0
					CHANNELS 6 Xposition Yposition Zposition Zrotation Xrotation Yrotation 
					JOINT Toes_R
					{
						OFFSET -11.7543 0.0 0.0
						CHANNELS 6 Xposition Yposition Zposition Zrotation Xrotation Yrotation 
						End Site
						{
							OFFSET 0.0 0.0 0.0
						}
					}
				}
			}
		}
	}
}
MOTION
Frames:	4
Frame Time:	0.0333333
0.000000 0.000000 0.000000 0.000000 0.000000 -0.000000 -4.522520 89.668700 1.086740 86.717600 -4.457960 8.291870 15.735700 0.000005 -0.000001 83.071200 85.068000 -85.340500 8.984550 -0.406207 -0.000000 2.008980 -1.075250 -4.515610 16.377300 -0.000001 -0.000001 9.719610 -5.557420 7.088610 6.456720 -0.000001 -0.000000 2.027920 -2.279680 3.103260 12.994200 -0.242716 4.980390 -90.802300 1.959480 -67.729000 5.348090 -0.000007 -0.000001 -67.738500 15.024900 -3.705680 24.328600 0.000019 0.000005 3.910850 18.305300 -12.279600 22.291600 -0.000001 0.000005 17.391300 5.106000 4.975840 12.994500 -0.242716 -4.980390 94.389900 -9.664190 -65.425200 -5.348130 -0.000001 -0.000004 -52.248100 -59.173600 -99.372000 -24.328900 0.000322 -0.000009 -5.210450 -4.186720 -51.317900 -22.291500 -0.000108 -0.000004 49.967300 5.683230 -21.597900 -2.192480 -6.469440 -0.000000 -169.626000 -10.033000 -3.489510 39.081100 -0.000007 -0.000012 -0.332046 0.451258 36.347200 40.985400 -0.000006 -0.000013 -3.218910 3.491740 -73.638300 11.754300 -0.000000 0.000003 -0.000256 -0.002280 -16.662900 -2.192510 6.469440 -0.000001 -178.235000 16.127400 177.640000 -39.081100 -0.002282 -0.040193 0.043862 -0.058624 34.685500 -40.985400 0.000008 0.000006 9.054220 7.198550 -74.131700 -11.754300 -0.000006 -0.000006 -0.186781 -0.238926 -17.379100
0.000000 0.000000 0.000000 0.000000 0.000000 -0.000000 -4.748980 89.561700 0.950434 86.091000 -3.981290 8.669100 15.735700 0.000005 -0.000001 85.134900 84.879900 -87.810900 8.984550 -0.406207 -0.000000 2.425750 -0.743229 -5.330930 16.377300 -0.000001 -0.000001 9.271060 -4.660750 5.532560 6.456720 -0.000001 -0.000000 1.940340 -2.018650 3.099490 12.994200 -0.242716 4.980390 -91.105200 2.625750 -67.164400 5.348090 -0.000007 -0.000001 -65.647400 15.685400 -4.683270 24.328600 0.000019 0.000005 3.896240 14.987200 -14.754700 22.291600 -0.000001 0.000005 17.164800 5.164790 3.586660 12.994500 -0.242716 -4.980390 93.280500 -8.125330 -67.925900 -5.348130 -0.000001 -0.000004 -44.963500 -57.963100 -84.141300 -24.328900 0.000322 -0.000009 -9.153410 -10.560600 -41.320400 -22.291500 -0.000108 -0.000004 28.620700 5.531750 -7.782530 -2.192480 -6.469440 -0.000000 -168.986000 -8.828500 -3.700700 39.081100 -0.000007 -0.000012 -0.350475 0.463164 37.115500 40.985400 -0.000006 -0.000013 -3.530420 3.067300 -73.906200 11.754300 -0.000000 0.000003 -0.000284 -0.002487 -16.670400 -2.192510 6.469440 -0.000001 -177.763000 17.189200 177.986000 -39.081100 -0.002282 -0.040193 0.044045 -0.058579 34.826600 -40.985400 0.000008 0.000006 9.244750 7.629290 -74.218500 -11.754300 -0.000006 -0.000006 -0.175158 -0.225795 -17.423400
0.000000 0.000000 0.000000 0.000000 0.000000 -0.000000 -5.011640 89.444400 0.778708 85.594000 -3.324050 8.815390 15.735700 0.000005 -0.000001 87.888800 84.715400 -91.149400 8.984550 -0.406207 -0.000000 2.797330 -0.247871 -6.508330 16.377300 -0.000001 -0.000001 8.519080 -3.567590 3.716240 6.456720 -0.000001 -0.000000 1.743520 -1.872190 3.613320 12.994200 -0.242716 4.980390 -91.369200 3.176760 -66.669900 5.348090 -0.000007 -0.000001 -63.344800 15.308500 -5.689370 24.328600 0.000019 0.000005 5.184850 15.380700 -18.886200 22.291600 -0.000001 0.000005 15.263300 5.197350 2.785440 12.994500 -0.242716 -4.980390 92.347700 -6.724160 -70.702800 -5.348130 -0.000001 -0.000004 -35.591600 -55.001300 -64.903100 -24.328900 0.000322 -0.000009 -12.401300 -21.286500 -31.204400 -22.291500 -0.000108 -0.000004 18.450700 5.214250 2.367800 -2.192480 -6.469440 -0.000000 -168.402000 -7.991580 -4.236980 39.081100 -0.000007 -0.000012 -0.360978 0.464071 37.878400 40.985400 -0.000006 -0.000013 -3.723580 3.102510 -74.073500 11.754300 -0.000000 0.000003 -0.000298 -0.002588 -16.674000 -2.192510 6.469440 -0.000001 -177.177000 17.907500 178.015000 -39.081100 -0.002282 -0.040193 0.045187 -0.059892 34.974000 -40.985400 0.000008 0.000006 9.415670 7.480570 -74.405900 -11.754300 -0.000006 -0.000006 -0.166561 -0.213851 -17.310100
0.000000 0.000000 0.000000 0.000000 0.000000 -0.000000 -5.347500 89.387300 0.493517 85.200900 -2.189760 8.402100 15.735700 0.000005 -0.000001 88.361500 84.709600 -92.266900 8.984550 -0.406207 -0.000000 2.817830 -0.134013 -7.799320 16.377300 -0.000001 -0.000001 7.892010 -2.619520 1.720790 6.456720 -0.000001 -0.000000 1.519160 -1.793960 4.440650 12.994200 -0.242716 4.980390 -91.597800 3.605350 -66.079500 5.348090 -0.000007 -0.000001 -61.192500 14.642400 -6.527540 24.328600 0.000019 0.000005 6.809410 16.095100 -23.302300 22.291600 -0.000001 0.000005 14.421500 5.215040 2.339230 12.994500 -0.242716 -4.980390 91.537500 -5.143330 -73.332500 -5.348130 -0.000001 -0.000004 -30.474200 -49.883700 -47.904200 -24.328900 0.000322 -0.000009 -13.715300 -31.650000 -24.942600 -22.291500 -0.000108 -0.000004 16.964700 4.898060 9.415310 -2.192480 -6.469440 -0.000000 -167.877000 -7.528950 -5.421150 39.081100 -0.000007 -0.000012 -0.364972 0.460854 38.378100 40.985400 -0.000006 -0.000013 -3.726040 3.812650 -73.922800 11.754300 -0.000000 0.000003 -0.000316 -0.002714 -16.678500 -2.192510 6.469440 -0.000001 -176.398000 18.746500 177.360000 -39.081100 -0.002282 -0.040193 0.047738 -0.063452 35.010500 -40.985400 0.000008 0.000006 9.638280 7.006840 -74.351800 -11.754300 -0.000006 -0.000006 -0.133546 -0.174766 -17.318600
